<svg xmlns="http://www.w3.org/2000/svg" viewBox="0 0 1400 900" role="img" aria-label="Macedonian commander before a campaign map">
  <rect width="1400" height="900" fill="#e5ddd0"/>
  <path d="M0 260 L1400 120 L1400 900 L0 900 Z" fill="#b9c4b6"/>
  <path d="M130 665 C280 520 390 515 520 610 C650 705 780 590 930 535 C1100 470 1230 540 1400 430 L1400 900 L0 900 Z" fill="#526d40"/>
  <rect x="155" y="170" width="620" height="485" rx="4" fill="#f4ead0" stroke="#7c6243" stroke-width="16"/>
  <path d="M245 345 C360 280 465 375 580 315 C650 280 690 330 720 380" fill="none" stroke="#7b2d26" stroke-width="12"/>
  <path d="M965 685 L1045 685 L1035 400 L978 400 Z" fill="#3b3028"/>
  <circle cx="1005" cy="330" r="76" fill="#bf7c55"/>
  <path d="M925 395 C975 360 1050 360 1095 405 L1070 500 L945 500 Z" fill="#25363a"/>
</svg>
